# xmcd
#
# Track frame offsets:
#	150
#	11120
#	23180
#	42525
#	52752
#	62845
#	82867
#	95754
#	115629
#	127910
#	147345
#	159380
#	171109
#
# Disc length: 2557 seconds
#
# Revision: 0
# Processed by: cddbd v1.5.1PL0 Copyright (c) Steve Scherf et al.
# Submitted via: EasyCDDAExtractor 7.7.1.2
#
DISCID=a209fb0d
DTITLE=Blackjack
DYEAR=1995
DGENRE=Country
TTITLE0=Want You Bad
TTITLE1=Be My Baby Tonight
TTITLE2=My Hats Off To Hiim
TTITLE3=Big River
TTITLE4=The Race Is On
TTITLE5=Neon Moon
TTITLE6=Just Once
TTITLE7=Rope The Moon
TTITLE8=Fulsom Prison Blues
TTITLE9=Love Me
TTITLE10=High Steppin' Daddy
TTITLE11=Walkin' After Midnight
TTITLE12=Pink Cadillac
EXTD=
EXTT0=
EXTT1=
EXTT2=
EXTT3=
EXTT4=
EXTT5=
EXTT6=
EXTT7=
EXTT8=
EXTT9=
EXTT10=
EXTT11=
EXTT12=
PLAYORDER=
